<?xml version="1.0" encoding="utf-8"?>
<!-- Generator: Adobe Illustrator 22.0.0, SVG Export Plug-In . SVG Version: 6.00 Build 0)  -->
<svg version="1.1" xmlns="http://www.w3.org/2000/svg" xmlns:xlink="http://www.w3.org/1999/xlink" x="0px" y="0px"
     viewBox="0 0 230 125" style="enable-background:new 0 0 230 125;" xml:space="preserve">
<style type="text/css">
	.st0{fill:#00C9EA;}
	.st1{fill:#FFFFFF;}
</style>
  <g id="Layer_2">
</g>
  <g id="Layer_1">
	<g id="static">
	</g>
    <g id="notes">
	</g>
    <g>
		<g id="menu_5_">
			<g>
				<g>
					<g>
						<path class="st0" d="M109.2,25.8c-1.2,0-2.4-0.5-3.3-1.4s-1.4-2-1.4-3.3c0-2.6,2.1-4.7,4.7-4.7c0.9,0,1.8,0.3,2.5,0.8l6.9-6.9
							c-0.5-0.7-0.7-1.7-0.7-2.6c0-2.6,2.1-4.7,4.7-4.7s4.7,2.1,4.7,4.7s-2.1,4.7-4.7,4.7c-1,0-1.9-0.3-2.6-0.7l-6.9,6.9
							c0.5,0.8,0.8,1.6,0.8,2.6C113.9,23.7,111.8,25.8,109.2,25.8z M109.2,18.3c-1.5,0-2.8,1.2-2.8,2.8c0,0.7,0.3,1.4,0.8,2
							c0.5,0.5,1.2,0.8,2,0.8c1.5,0,2.8-1.2,2.8-2.8c0-0.7-0.3-1.4-0.8-1.9l0,0l0,0C110.6,18.6,109.9,18.3,109.2,18.3z M120.6,9.7
							L120.6,9.7c0.5,0.5,1.2,0.8,2,0.8c1.5,0,2.8-1.2,2.8-2.8c0-1.5-1.2-2.8-2.8-2.8c-1.5,0-2.8,1.2-2.8,2.8
							C119.8,8.5,120.1,9.3,120.6,9.7z"/>
					</g>
				</g>
        <g>
					<path class="st1" d="M48.3,72.3V51.9c0-0.5,0.4-1,1-1c0.6,0,0.9,0.4,0.9,1v20.4c0,0.5-0.4,1-0.9,1S48.3,72.8,48.3,72.3z"/>
          <path class="st1" d="M74.6,72.8L60.9,54v18.3c0,0.5-0.4,1-0.9,1s-1-0.5-1-1V52.2c0-0.7,0.5-1.3,1.2-1.3c0.4,0,0.8,0.2,1,0.5
						l13.7,18.5v-18c0-0.5,0.4-1,0.9-1s1,0.4,1,1v20.2c0,0.6-0.5,1.2-1.2,1.2C75.2,73.3,74.8,73.1,74.6,72.8z"/>
          <path class="st1" d="M84.6,69.9c0-0.5,0.4-1,0.9-1c0.3,0,0.5,0.1,0.7,0.2c1.5,1.4,3.6,2.6,6.3,2.6c4.6,0,5.8-2.5,5.8-4.4
						c0-3.1-3-4-6.1-4.8c-3.5-1-7.2-2-7.2-6c0-3.6,3.3-5.9,7.4-5.9c2.9,0,5.1,0.9,6.8,2.6c0.2,0.1,0.4,0.4,0.4,0.7
						c0,0.5-0.4,0.9-1,0.9c-0.2,0-0.5-0.1-0.6-0.2c-1.6-1.6-3.6-2.2-5.7-2.2c-3.1,0-5.3,1.7-5.3,4.1c0,2.6,2.8,3.4,5.8,4.2
						c3.6,1,7.5,2.2,7.5,6.6c0,2.9-1.9,6.3-7.9,6.3c-3.2,0-5.8-1.2-7.5-2.9C84.7,70.5,84.6,70.2,84.6,69.9z"/>
          <path class="st1" d="M108.2,72.3V51.9c0-0.5,0.4-1,1-1c0.5,0,0.9,0.4,0.9,1v20.4c0,0.5-0.4,1-0.9,1
						C108.6,73.3,108.2,72.8,108.2,72.3z"/>
          <path class="st1" d="M137.7,63.2v5.9c0,0.5-0.1,0.9-0.5,1.3c-1.9,1.9-4.7,3.2-7.9,3.2c-6.2,0-11.2-4.7-11.2-11.5
						s5-11.5,11.2-11.5c3.2,0,5.7,1.1,7.7,3.1c0.2,0.1,0.2,0.4,0.2,0.6c0,0.5-0.4,0.9-0.9,0.9c-0.2,0-0.5-0.1-0.6-0.2
						c-1.6-1.6-4-2.6-6.5-2.6c-5.2,0-9.2,4-9.2,9.7s4,9.8,9.2,9.8c3,0,5.3-1.5,6.5-2.7v-5.3h-7.6c-0.5,0-0.9-0.4-0.9-0.9
						s0.4-0.8,0.9-0.8h8.5C137.4,62.2,137.7,62.5,137.7,63.2z"/>
          <path class="st1" d="M161.8,72.3v-9.7h-14.1v9.7c0,0.5-0.4,1-0.9,1s-1-0.5-1-1V51.9c0-0.5,0.4-1,1-1c0.6,0,0.9,0.4,0.9,1v9
						h14.1v-9c0-0.5,0.4-1,1-1c0.5,0,1,0.4,1,1v20.4c0,0.5-0.4,1-1,1C162.2,73.3,161.8,72.8,161.8,72.3z"/>
          <path class="st1" d="M178.2,72.3V52.7h-6.5c-0.5,0-0.9-0.4-0.9-0.9s0.4-0.9,0.9-0.9h14.9c0.5,0,0.9,0.4,0.9,0.9
						s-0.4,0.9-0.9,0.9h-6.5v19.6c0,0.5-0.4,1-1,1C178.6,73.3,178.2,72.8,178.2,72.3z"/>
				</g>
			</g>
		</g>
      <g>
			<path class="st1" d="M6.3,100.3H4.5v-1.1h1.8v-1c0-2.2,1.2-3.4,3-3.4c0.6,0,1.1,0.1,1.5,0.3L10.5,96c-0.3-0.2-0.6-0.3-1-0.3
				c-1.3,0-1.9,0.9-1.9,2.4v1h2.3v1.1H7.5v10H6.3V100.3z"/>
        <path class="st1" d="M11.4,104.8c0-3.2,2.1-5.8,5.3-5.8c3.3,0,5.4,2.6,5.4,5.8s-2.1,5.8-5.4,5.8C13.5,110.6,11.4,108,11.4,104.8z
				 M20.8,104.8c0-2.5-1.4-4.7-4.1-4.7c-2.6,0-4,2.3-4,4.7c0,2.5,1.5,4.8,4,4.8C19.4,109.5,20.8,107.2,20.8,104.8z"/>
        <path class="st1" d="M25.2,99.2h1.2v1.9c0.9-1.2,2.2-2.1,3.7-2.1v1.3c-0.2,0-0.4,0-0.6,0c-1.1,0-2.6,1-3.2,2v8.1h-1.2V99.2z"/>
        <path class="st1" d="M37.9,102.7c0-4.7,3.4-7.9,7.7-7.9c2.5,0,4.3,1.1,5.6,2.7l-1.1,0.7c-1-1.3-2.6-2.2-4.5-2.2
				c-3.6,0-6.3,2.7-6.3,6.7c0,4,2.8,6.7,6.3,6.7c1.9,0,3.6-0.9,4.5-2.2l1.1,0.7c-1.4,1.7-3.2,2.7-5.6,2.7
				C41.3,110.6,37.9,107.4,37.9,102.7z"/>
        <path class="st1" d="M61.4,102.8c0-2.1-1.1-2.7-2.7-2.7c-1.4,0-2.9,0.9-3.6,1.9v8.4h-1.2V95h1.2v5.9c0.8-1,2.4-2,4-2
				c2.3,0,3.5,1.1,3.5,3.6v7.8h-1.2V102.8z"/>
        <path class="st1" d="M71,98.9c3.4,0,5.2,2.7,5.2,5.9v0.3H67c0.1,2.4,1.7,4.4,4.3,4.4c1.4,0,2.7-0.5,3.6-1.5l0.6,0.8
				c-1.1,1.1-2.5,1.8-4.3,1.8c-3.2,0-5.6-2.4-5.6-5.8C65.7,101.5,67.9,98.9,71,98.9z M67,104.2H75c0-1.9-1.3-4.2-4-4.2
				C68.4,100,67.1,102.3,67,104.2z"/>
        <path class="st1" d="M79.1,108c0.7,0.9,2,1.6,3.6,1.6c1.9,0,3-0.9,3-2.2c0-1.4-1.5-1.8-3.1-2.3c-1.9-0.5-3.9-0.9-3.9-3.1
				c0-1.7,1.4-3.1,4-3.1c1.9,0,3.2,0.7,4,1.6l-0.7,0.9c-0.6-0.9-1.8-1.5-3.3-1.5c-1.7,0-2.8,0.9-2.8,2c0,1.3,1.4,1.6,3,2
				c1.9,0.5,4,1,4,3.4c0,1.8-1.4,3.3-4.2,3.3c-1.8,0-3.2-0.5-4.3-1.7L79.1,108z"/>
        <path class="st1" d="M90.1,108.2v-7.9h-1.8v-1.1h1.8v-3h1.2v3h2.3v1.1h-2.3v7.7c0,0.9,0.4,1.5,1.1,1.5c0.5,0,1-0.3,1.2-0.5
				l0.5,0.9c-0.4,0.4-1,0.7-1.9,0.7C90.8,110.6,90.1,109.7,90.1,108.2z"/>
        <path class="st1" d="M106.9,104h-3.4v6.3h-1.3V95h5.7c2.6,0,4.7,1.7,4.7,4.5c0,2.8-2,4.3-4.3,4.4l4.4,6.4h-1.6L106.9,104z
				 M107.8,96.2h-4.3v6.6h4.3c2,0,3.4-1.4,3.4-3.3S109.9,96.2,107.8,96.2z"/>
        <path class="st1" d="M122.4,109c-1,1.1-2.2,1.6-3.8,1.6c-1.9,0-3.9-1.3-3.9-3.7c0-2.4,2-3.7,3.9-3.7c1.5,0,2.8,0.5,3.8,1.6v-2.3
				c0-1.7-1.3-2.6-3-2.6c-1.4,0-2.5,0.5-3.5,1.6l-0.7-0.8c1.2-1.2,2.4-1.9,4.3-1.9c2.3,0,4,1.1,4,3.6v7.8h-1.2V109z M122.4,105.7
				c-0.8-1-2-1.5-3.4-1.5c-1.8,0-3,1.2-3,2.8c0,1.6,1.2,2.7,3,2.7c1.3,0,2.6-0.5,3.4-1.5V105.7z"/>
        <path class="st1" d="M135.5,108.6c-0.8,1.1-2.2,2-3.9,2c-2.9,0-5-2.3-5-5.8c0-3.5,2-5.8,5-5.8c1.6,0,3,0.8,3.9,2.1v-6h1.2v15.3
				h-1.2V108.6z M135.5,102c-0.6-1.1-2.1-2-3.7-2c-2.5,0-3.9,2.1-3.9,4.8s1.4,4.7,3.9,4.7c1.6,0,3-0.9,3.7-2V102z"/>
        <path class="st1" d="M140.2,96.5c0-0.5,0.4-0.9,0.9-0.9c0.5,0,0.9,0.4,0.9,0.9s-0.4,0.9-0.9,0.9C140.6,97.4,140.2,97,140.2,96.5z
				 M140.5,99.2h1.2v11.1h-1.2V99.2z"/>
        <path class="st1" d="M144.8,104.8c0-3.2,2.1-5.8,5.3-5.8c3.3,0,5.4,2.6,5.4,5.8s-2.1,5.8-5.4,5.8
				C146.9,110.6,144.8,108,144.8,104.8z M154.2,104.8c0-2.5-1.4-4.7-4.1-4.7c-2.6,0-4,2.3-4,4.7c0,2.5,1.5,4.8,4,4.8
				C152.7,109.5,154.2,107.2,154.2,104.8z"/>
        <path class="st1" d="M159.3,112.2c1,1.2,2,1.6,3.7,1.6c2,0,3.8-1,3.8-3.6v-1.7c-0.8,1.1-2.2,2.1-3.9,2.1c-2.9,0-5-2.2-5-5.8
				c0-3.5,2-5.8,5-5.8c1.6,0,3,0.8,3.9,2.1v-1.8h1.2v11c0,3.4-2.3,4.6-5,4.6c-1.9,0-3.1-0.3-4.4-1.7L159.3,112.2z M166.7,102
				c-0.6-1.1-2.1-2-3.7-2c-2.5,0-3.9,2-3.9,4.7s1.4,4.7,3.9,4.7c1.5,0,3-0.9,3.7-2V102z"/>
        <path class="st1" d="M171.7,99.2h1.2v1.9c0.9-1.2,2.2-2.1,3.7-2.1v1.3c-0.2,0-0.4,0-0.6,0c-1.1,0-2.6,1-3.2,2v8.1h-1.2V99.2z"/>
        <path class="st1" d="M186,109c-1,1.1-2.2,1.6-3.8,1.6c-1.9,0-3.9-1.3-3.9-3.7c0-2.4,2-3.7,3.9-3.7c1.5,0,2.8,0.5,3.8,1.6v-2.3
				c0-1.7-1.3-2.6-3-2.6c-1.4,0-2.5,0.5-3.5,1.6l-0.7-0.8c1.1-1.2,2.4-1.9,4.3-1.9c2.3,0,4,1.1,4,3.6v7.8H186V109z M186,105.7
				c-0.8-1-2-1.5-3.4-1.5c-1.8,0-3,1.2-3,2.8c0,1.6,1.2,2.7,3,2.7c1.3,0,2.6-0.5,3.4-1.5V105.7z"/>
        <path class="st1" d="M190.9,114.6V99.2h1.2v1.7c0.8-1.1,2.2-2,3.9-2c3,0,5,2.3,5,5.8c0,3.5-2,5.8-5,5.8c-1.6,0-3-0.8-3.9-2.1v6
				H190.9z M195.8,100c-1.5,0-3,0.9-3.7,2v5.5c0.6,1.1,2.1,2,3.7,2c2.5,0,3.9-2.1,3.9-4.8S198.3,100,195.8,100z"/>
        <path class="st1" d="M211.5,102.8c0-2.1-1.1-2.7-2.7-2.7c-1.4,0-2.9,0.9-3.6,1.9v8.4H204V95h1.2v5.9c0.8-1,2.4-2,4-2
				c2.3,0,3.5,1.1,3.5,3.6v7.8h-1.2V102.8z"/>
        <path class="st1" d="M225.5,99.2l-5.7,13.5c-0.6,1.4-1.5,2.1-2.9,2.1c-0.4,0-0.9-0.1-1.2-0.2l0.2-1.1c0.3,0.1,0.7,0.2,1,0.2
				c0.7,0,1.2-0.3,1.7-1.4l0.9-2l-4.7-11.2h1.3l4,9.7l4-9.7H225.5z"/>
		</g>
	</g>
    <g id="notes_1_">
	</g>
</g>
</svg>
